<?xml version="1.0" encoding="utf-8"?>
<!-- Generator: Adobe Illustrator 19.2.0, SVG Export Plug-In . SVG Version: 6.00 Build 0)  -->
<svg version="1.1" id="Layer_1" xmlns="http://www.w3.org/2000/svg" xmlns:xlink="http://www.w3.org/1999/xlink" x="0px" y="0px"
	 viewBox="0 0 183 183" style="enable-background:new 0 0 183 183;" xml:space="preserve">

	<g>
		<rect x="160" y="71" transform="matrix(1.673487e-11 1 -1 1.673487e-11 254 -71)" width="5" height="41"/>
		<rect x="18" y="71" transform="matrix(1.673487e-11 1 -1 1.673487e-11 112 71)" width="5" height="41"/>
		<rect x="89" y="0" width="5" height="41"/>
		<rect x="89" y="142" width="5" height="41"/>
		<rect x="139.2" y="20.8" transform="matrix(0.7071 0.7071 -0.7071 0.7071 70.7046 -88.1051)" width="5" height="41"/>
		<rect x="38.8" y="121.2" transform="matrix(0.7071 0.7071 -0.7071 0.7071 112.2954 12.304)" width="5" height="41"/>
		<rect x="38.8" y="20.8" transform="matrix(0.7071 -0.7071 0.7071 0.7071 -17.1051 41.2954)" width="5" height="41"/>
		<rect x="139.2" y="121.2" transform="matrix(0.7071 -0.7071 0.7071 0.7071 -58.696 141.7046)" width="5" height="41"/>
	</g>

	<g>
		<rect x="89" y="36" width="5" height="111"/>
		<rect x="89" y="36" transform="matrix(4.474713e-11 1 -1 4.474713e-11 183 -4.094360e-09)" width="5" height="111"/>
		<rect x="89" y="36" transform="matrix(0.7071 0.7071 -0.7071 0.7071 91.5 -37.9005)" width="5" height="111"/>
		<rect x="89" y="36" transform="matrix(-0.7071 0.7071 -0.7071 -0.7071 220.9005 91.5)" width="5" height="111"/>
	</g>

	<g>
		<rect x="89" y="71" transform="matrix(1.673487e-11 1 -1 1.673487e-11 183 -1.531248e-09)" width="5" height="41"/>
		<rect x="89" y="71" transform="matrix(-1 6.148181e-11 -6.148181e-11 -1 183 183)" width="5" height="41"/>
	</g>
	
</svg>
