<?xml version="1.0" encoding="utf-8"?>
<!-- Generator: Adobe Illustrator 19.2.0, SVG Export Plug-In . SVG Version: 6.00 Build 0)  -->
<svg version="1.1" id="Layer_1" xmlns="http://www.w3.org/2000/svg" xmlns:xlink="http://www.w3.org/1999/xlink" x="0px" y="0px"
	 viewBox="0 0 183 183" style="enable-background:new 0 0 183 183;" xml:space="preserve">
<style type="text/css">
	.st0{fill:#FFFFFF;}
</style>
<rect width="183" height="183"/>
<g>
	<rect x="158.5" y="71" transform="matrix(1.045901e-11 1 -1 1.045901e-11 254 -71)" class="st0" width="8" height="41"/>
	<rect x="16.5" y="71" transform="matrix(1.045901e-11 1 -1 1.045901e-11 112 71)" class="st0" width="8" height="41"/>
	<rect x="87.5" y="0" class="st0" width="8" height="41"/>
	<rect x="87.5" y="142" class="st0" width="8" height="41"/>
	<rect x="137.7" y="20.8" transform="matrix(0.7071 0.7071 -0.7071 0.7071 70.7046 -88.1051)" class="st0" width="8" height="41"/>
	<rect x="37.3" y="121.2" transform="matrix(0.7071 0.7071 -0.7071 0.7071 112.2954 12.304)" class="st0" width="8" height="41"/>
	<rect x="37.3" y="20.8" transform="matrix(0.7071 -0.7071 0.7071 0.7071 -17.1051 41.2954)" class="st0" width="8" height="41"/>
	<rect x="137.7" y="121.2" transform="matrix(0.7071 -0.7071 0.7071 0.7071 -58.696 141.7046)" class="st0" width="8" height="41"/>
</g>
</svg>
