<?xml version="1.0" encoding="utf-8"?>
<!-- Generator: Adobe Illustrator 19.2.0, SVG Export Plug-In . SVG Version: 6.00 Build 0)  -->
<svg version="1.1" id="Layer_1" xmlns="http://www.w3.org/2000/svg" xmlns:xlink="http://www.w3.org/1999/xlink" x="0px" y="0px"
	 viewBox="0 0 517 65" style="enable-background:new 0 0 517 65;" xml:space="preserve">
<style type="text/css">
	.st0{fill:#FFFFFF;}
</style>
<g>
	<path d="M485.7,41.8h15.6V12.3h14.4V2.4h-44.4v9.9h14.4V41.8z M449.1,27.7c2.1,0.3,2.8,1.5,2.8,2.7c0,1.9-1.3,3.2-6.2,3.2
		c-2.4,0-4.1-0.3-5.3-0.8c-1.1-0.6-1.6-1.5-1.7-2.8H420c0.1,11.6,13.1,13.3,25.1,13.3c17.5,0,25.3-4.5,25.3-14.1
		c0-6.7-4.9-10.3-12.7-11.5l-18.6-2.8c-1.5-0.2-2-0.9-2-2c0-1.7,1.6-2.8,6.2-2.8c1.7,0,3.5,0.2,4.9,0.8c1.4,0.6,2.4,1.5,2.4,3.1
		h18.1C468.2,5.6,460.9,1,443.4,1c-12.8,0-22.8,2.8-22.8,13c0,5.5,3.1,9.9,10.8,11.1L449.1,27.7z M369,26.8
		c0,12.5,7.6,16.3,23.6,16.3c16,0,23.6-3.8,23.6-16.3V2.4h-15.6v23.9c0,5.1-2.9,6.7-8,6.7c-5.1,0-8-1.6-8-6.7V2.4H369V26.8z
		 M313.9,41.8h30.6c13.1,0,20.1-5.9,20.1-19.7c0-14.5-7.1-19.7-20.4-19.7h-30.3V41.8z M329.5,12.3h8.9c7.1,0,10,3.5,10,9.8
		s-2.9,9.8-10,9.8h-8.9V12.3z M258.5,41.8h14.9V19.7h0.1l16.6,22.1h17.1V2.4h-14.9v21.9h-0.2L276.3,2.4h-17.8V41.8z M211.3,41.8
		h41.9v-9.6h-26.3v-5.3h24.5v-9.6h-24.5V12h26.3V2.4h-41.9V41.8z M164,41.8h41.9v-9.6h-26.3v-5.3h24.5v-9.6h-24.5V12h26.3V2.4H164
		V41.8z M126.9,12.3h10.8c2.6,0,4.5,0.7,4.5,3.7c0,2.5-1.3,3.7-4.3,3.7h-11V12.3z M111.4,41.8h15.6V29.7h11c2.9,0,3.9,1.8,4,4.7
		c0.3,4.6,0.3,6.3,0.8,7.5h17c-1-1.2-1.8-2.9-1.9-4.6l-0.7-8.6c-0.3-3.4-2.2-5.4-4.5-6.1v-0.1c4.5-1.3,6.1-5.3,6.1-9
		c0-4.3-2.4-8.1-5.4-9.6c-2.2-1-4.9-1.4-9.3-1.4h-32.8V41.8z M89.2,26.5c-1.3,4.7-4.2,6.8-9.1,6.8c-5.7,0-9.6-3.1-9.6-11.2
		s4-11.2,10.4-11.2c6,0,7.9,4.1,8.3,6.9h17.6C104.7,2.2,90.2,1,80.9,1c-9.4,0-26.9,0.7-26.9,21.1c0,20.4,17.5,21.1,26.9,21.1
		c9.5,0,15.5-1.6,19.3-4.5c3.9-2.9,5.6-7.1,6.6-12.3H89.2z M30.1,27.7c2.1,0.3,2.8,1.5,2.8,2.7c0,1.9-1.3,3.2-6.2,3.2
		c-2.4,0-4.1-0.3-5.3-0.8c-1.1-0.6-1.6-1.5-1.7-2.8H1c0.1,11.6,13.1,13.3,25.1,13.3c17.5,0,25.3-4.5,25.3-14.1
		c0-6.7-4.9-10.3-12.7-11.5l-18.6-2.8c-1.5-0.2-2-0.9-2-2c0-1.7,1.6-2.8,6.2-2.8c1.7,0,3.5,0.2,4.9,0.8c1.4,0.6,2.4,1.5,2.4,3.1
		h18.1C49.1,5.6,41.9,1,24.4,1C11.5,1,1.6,3.8,1.6,14c0,5.5,3.1,9.9,10.8,11.1L30.1,27.7z"/>
	<path d="M337.2,63.7h14.1v-2.5h-10.7v-4.4h10.1v-2.5h-10.1v-4h10.5v-2.5h-13.9V63.7z M317.3,63.7h3.2v-12h0l9.6,12h3.8v-16h-3.2v12
		h0l-9.5-12h-3.9V63.7z M305.6,61.6c-3.8,0-5.9-2.4-5.9-5.9c0-3.5,2.2-5.9,5.9-5.9c3.8,0,5.9,2.4,5.9,5.9
		C311.5,59.2,309.3,61.6,305.6,61.6 M305.6,64.1c6.8,0,9.4-3.9,9.4-8.5s-2.6-8.5-9.4-8.5c-6.8,0-9.4,3.9-9.4,8.5
		S298.8,64.1,305.6,64.1 M272.5,63.7h14.1v-2.5h-10.7v-4.4H286v-2.5h-10.1v-4h10.5v-2.5h-13.9V63.7z M257.6,54.9v-4.7h5.8
		c1.8,0,2.9,0.7,2.9,2.3c0,1.8-1,2.4-2.9,2.4H257.6z M254.3,63.7h3.4v-6.3h5.7c2.5,0,2.8,1.6,2.8,3.9c0,1.2,0.2,2,0.4,2.4h3.6
		c-0.6-0.9-0.7-2.7-0.7-3.4c0-2.3-0.4-3.9-2.3-4.3v0c1.5-0.5,2.6-1.8,2.6-3.9c0-2.5-1.3-4.4-5.4-4.4h-10.1V63.7z M235.5,56.8
		c0,2.6,0.1,7.3,7.8,7.3c7.8,0,7.9-4.7,7.9-7.3v-9.1h-3.4v9c0,2.2-0.1,4.9-4.5,4.9c-4.4,0-4.5-2.7-4.5-4.9v-9h-3.4V56.8z
		 M224.7,63.7h3.4V50.2h6v-2.5h-15.4v2.5h6V63.7z M202.8,63.7h3.4v-6.1h6.5c3.6,0,5.2-2.5,5.2-4.9c0-2.6-1.3-5-5.2-5h-9.9V63.7z
		 M206.1,50.2h5.6c1.3,0,2.7,0.5,2.7,2.5c0,1.9-1,2.4-2.9,2.4h-5.4V50.2z M183.1,63.7h3.6l1.7-4h7.5l1.7,4h3.7l-7.1-16h-4
		L183.1,63.7z M189.4,57.2l2.8-6.8l2.7,6.8H189.4z M183.1,53.6c-0.4-3.5-3.2-6.4-8.7-6.4c-6.3,0-8.9,3.9-8.9,8.5s2.8,8.5,8.5,8.5
		c6.6,0,8.7-3.4,9.1-6.6h-3.6c-0.3,1.7-1.4,4.1-4.9,4.1c-3.3,0-5.6-2.3-5.6-5.7c0-4.2,2.3-6.2,5.4-6.2c2.8,0,4.8,1.4,5.2,3.9H183.1z
		"/>
</g>
</svg>
